# xmcd CD database file
# Copyright (C) 1993-1998 Ti Kan
#
# Track frame offsets:
# 190
# 13090
# 26507
# 39080
# 53952
# 68042
# 81895
# 92792
# 106212
# 117162
#
# Disc length: 1714 seconds
#
# Revision: 0
# Processed by: cddbd v1.4b41PL1 Copyright (c) Steve Scherf et al.
# Submitted via: inCDius 1.1b8
#
DISCID=7406b00a
DTITLE=Muddy Waters - Rollin' Stone
DYEAR=1900
DGENRE=
TTITLE0=Forty Days and Forty Nights
TTITLE1=Rollin' And Tumblin'
TTITLE2=All Aboard
TTITLE3=Rock Me
TTITLE4=Rollin' Stone
TTITLE5=I'm Ready
TTITLE6=Standing Around Crying
TTITLE7=She Moves Me
TTITLE8=I feel So Good
TTITLE9=Goin' Home
EXTD=
EXTT0=
EXTT1=
EXTT2=
EXTT3=
EXTT4=
EXTT5=
EXTT6=
EXTT7=
EXTT8=
EXTT9=
PLAYORDER=
